<svg id="Capa_1" data-name="Capa 1" xmlns="http://www.w3.org/2000/svg" viewBox="0 0 512 279.27"><defs><style>.cls-1{fill:#fff;}</style></defs><rect class="cls-1" x="166.21" y="46.76" width="302.55" height="186.18" rx="21.09"/><path class="cls-1" d="M23.27,209.46V162.91a46.54,46.54,0,0,1,46.55-46.54H465.45A46.53,46.53,0,0,1,512,162.91V349.09a46.55,46.55,0,0,1-46.55,46.55H69.82a46.55,46.55,0,0,1-46.55-46.55V302.55A23.27,23.27,0,0,1,0,279.27V232.73A23.27,23.27,0,0,1,23.27,209.46Zm23.27,23.27V349.09a23.27,23.27,0,0,0,23.28,23.27H465.45a23.27,23.27,0,0,0,23.28-23.27V162.91a23.27,23.27,0,0,0-23.28-23.27H69.82a23.27,23.27,0,0,0-23.28,23.27v69.82Z" transform="translate(0 -116.37)"/></svg>