<svg id="Layer_1" data-name="Layer 1" xmlns="http://www.w3.org/2000/svg" xmlns:xlink="http://www.w3.org/1999/xlink" viewBox="0 0 469.17 324"><defs><style>.cls-1{fill:#101318;}.cls-2{fill:#2b343a;}.cls-3{fill:#2b3036;}.cls-4{fill:#1c242a;}.cls-5{fill:#151c21;}.cls-6{fill:#2b3037;}.cls-7{fill:url(#linear-gradient);}.cls-8,.cls-9{fill:#fbfdfd;}.cls-9{font-size:12px;font-family:Dubai-Medium, Dubai;font-weight:500;}.cls-10{fill:url(#linear-gradient-2);}</style><linearGradient id="linear-gradient" x1="852.61" y1="506.87" x2="894.44" y2="506.87" gradientUnits="userSpaceOnUse"><stop offset="0.08" stop-color="#0f6a5b"/><stop offset="1" stop-color="#069d8a"/></linearGradient><linearGradient id="linear-gradient-2" x1="71.35" y1="297.13" x2="71.35" y2="256.7" gradientUnits="userSpaceOnUse"><stop offset="0" stop-color="#006d38"/><stop offset="1" stop-color="#104421"/></linearGradient></defs><rect class="cls-1" width="469.17" height="324"/><polygon class="cls-2" points="401.87 37.76 468 73.96 402.06 108.78 401.87 37.76"/><polygon class="cls-3" points="402.06 108.59 468.2 144.78 402.26 179.61 402.06 108.59"/><polygon class="cls-4" points="402.26 179.41 468.39 215.61 402.46 250.44 402.26 179.41"/><polygon class="cls-4" points="402.46 250.24 468.59 286.44 402.65 321.26 402.46 250.24"/><polygon class="cls-3" points="335.61 1.24 401.74 37.44 335.8 72.26 335.61 1.24"/><polygon class="cls-3" points="335.8 72.06 401.94 108.26 336 143.09 335.8 72.06"/><polygon class="cls-4" points="336 142.89 402.13 179.09 336.2 213.91 336 142.89"/><polygon class="cls-4" points="336.2 213.72 402.33 249.91 336.39 284.74 336.2 213.72"/><polygon class="cls-4" points="267.52 34.11 333.65 70.3 267.72 105.13 267.52 34.11"/><polygon class="cls-4" points="267.72 104.94 333.85 141.13 267.91 175.96 267.72 104.94"/><polygon class="cls-5" points="267.91 175.76 334.04 211.96 268.11 246.78 267.91 175.76"/><polygon class="cls-5" points="268.11 246.59 334.24 282.78 268.3 317.61 268.11 246.59"/><polygon class="cls-4" points="134.87 102.2 201 138.39 135.06 173.22 134.87 102.2"/><polygon class="cls-3" points="134.87 173.02 201 209.22 135.06 244.04 134.87 173.02"/><polygon class="cls-4" points="135.06 244.44 201.2 280.63 135.26 315.46 135.06 244.44"/><polygon class="cls-4" points="68.15 65.61 134.28 101.8 68.35 136.63 68.15 65.61"/><polygon class="cls-3" points="68.35 136.63 134.48 172.83 68.54 207.65 68.35 136.63"/><polygon class="cls-4" points="68.35 207.46 134.48 243.65 68.54 278.48 68.35 207.46"/><polygon class="cls-3" points="1.83 100.24 67.96 136.44 2.02 171.26 1.83 100.24"/><polygon class="cls-3" points="1.83 171.26 67.96 207.46 2.02 242.28 1.83 171.26"/><polygon class="cls-6" points="201.2 210.2 267.33 246.39 201.39 281.22 201.2 210.2"/><path class="cls-7" d="M892.18,492.29a8.39,8.39,0,0,0-11.84-.15l-12.23,11.92-2.63-3.15a7.69,7.69,0,1,0-11.81,9.85l7.71,9.25a9,9,0,0,0,1,1.3l.4.36a7.71,7.71,0,0,0,9.29,1.3,8.34,8.34,0,0,0,2.16-1.51L892,504.13A8.39,8.39,0,0,0,892.18,492.29Z" transform="translate(-448.91 -222.5)"/><path class="cls-8" d="M796.46,507.56a4.18,4.18,0,0,1-1.11-3.27V493.08l2-.56.17.12v11.44a2.72,2.72,0,0,0,.26,1.32,1.36,1.36,0,0,0,.81.64,4.91,4.91,0,0,0,1.54.19,1.07,1.07,0,0,1,.75.2.74.74,0,0,1,.21.57,1.68,1.68,0,0,1-.34,1.1,1.34,1.34,0,0,1-1.13.44A4.69,4.69,0,0,1,796.46,507.56Z" transform="translate(-448.91 -222.5)"/><path class="cls-8" d="M808.47,506.43a.74.74,0,0,1,.21.57,1.76,1.76,0,0,1-.32,1.09,1.32,1.32,0,0,1-1.14.45,6.87,6.87,0,0,1-1.85-.28,4.66,4.66,0,0,1-1.63-.84,4.19,4.19,0,0,1-1.51.84,7.22,7.22,0,0,1-2.1.28h-.47l.54-2.31h.47a3.46,3.46,0,0,0,1.91-.38,5.57,5.57,0,0,0,.43-1.17c.15-.54.33-1.29.55-2.25l2.33-.56.23.16c-.19.81-.36,1.5-.54,2.08a10,10,0,0,1-.58,1.53,5.89,5.89,0,0,0,2.75.59A1,1,0,0,1,808.47,506.43ZM805,499.54,802.83,498l1.35-2,2.17,1.49Z" transform="translate(-448.91 -222.5)"/><path class="cls-8" d="M815.46,506.43a.71.71,0,0,1,.22.57,1.77,1.77,0,0,1-.33,1.09,1.32,1.32,0,0,1-1.14.45,4.66,4.66,0,0,1-1.66-.31,2.66,2.66,0,0,1-1.28-1.05,3.17,3.17,0,0,1-1.55,1.05,8.44,8.44,0,0,1-2.5.31l.53-2.31a10,10,0,0,0,1.17-.07,2.19,2.19,0,0,0,.88-.31,7.91,7.91,0,0,0,.17-1.79v-11l2-.56.2.12V503.9a3.16,3.16,0,0,0,.28,1.52,1.29,1.29,0,0,0,.79.66,5.51,5.51,0,0,0,1.47.15A1,1,0,0,1,815.46,506.43Z" transform="translate(-448.91 -222.5)"/><path class="cls-8" d="M823.49,496.23l-5.57,2.93a24.41,24.41,0,0,1,3.1,2.37,6.76,6.76,0,0,1,1.47,1.82,3.7,3.7,0,0,1,.37,1.55,3,3,0,0,1-1.52,2.67,9.39,9.39,0,0,1-4.87,1h-2.26l.52-2.31h1.67a16.28,16.28,0,0,0,2.9-.24,5.41,5.41,0,0,0,1.79-.53,2.41,2.41,0,0,0-.71-1.53,10.7,10.7,0,0,0-1.83-1.61c-.75-.53-1.67-1.15-2.78-1.85l-.11-.14.58-2.78,7.83-4.26.19.11Z" transform="translate(-448.91 -222.5)"/><path class="cls-8" d="M835.4,506.43a.74.74,0,0,1,.21.57,1.71,1.71,0,0,1-.34,1.09,1.34,1.34,0,0,1-1.15.45h-1.61a5.83,5.83,0,0,1-1.35,2.08,6.37,6.37,0,0,1-2.33,1.47,9.28,9.28,0,0,1-3.31.57l-1.17-1.72.14-.21a11.51,11.51,0,0,0,3.69-.61,4.54,4.54,0,0,0,2.23-1.58H830a5.49,5.49,0,0,1-3.31-.83,2.76,2.76,0,0,1-1.09-2.35,5.23,5.23,0,0,1,.49-2.18,4.94,4.94,0,0,1,1.31-1.78,2.72,2.72,0,0,1,1.79-.7,2.79,2.79,0,0,1,1.91.75,5,5,0,0,1,1.32,2,8.52,8.52,0,0,1,.5,2.77h1.72A1.08,1.08,0,0,1,835.4,506.43Zm-7.41-.49a5.4,5.4,0,0,0,2.07.29h1a4.41,4.41,0,0,0-.3-1.63,3.36,3.36,0,0,0-.76-1.23,1.32,1.32,0,0,0-.92-.45,1.35,1.35,0,0,0-.81.28,2,2,0,0,0-.65.77,2.37,2.37,0,0,0-.24,1.07A1,1,0,0,0,828,505.94Z" transform="translate(-448.91 -222.5)"/><path class="cls-8" d="M834.69,506.23h.68a7.3,7.3,0,0,0,2.41-.24,1.91,1.91,0,0,0,.09-.63,4.92,4.92,0,0,0-.32-1.59c-.22-.6-.52-1.29-.89-2.07l1.83-1.49h.23a18.13,18.13,0,0,1,.87,2.46,8.14,8.14,0,0,1,.34,2,4.62,4.62,0,0,1-.31,1.63,3.6,3.6,0,0,1-.86,1.33,2.93,2.93,0,0,1-1.38.71,11.92,11.92,0,0,1-2.51.2h-.73Zm1.83-8.33-2.1-1.46,1.29-2,2.09,1.44Zm3.29,0-2.1-1.46,1.31-2,2.09,1.44Z" transform="translate(-448.91 -222.5)"/><text class="cls-9" transform="translate(339.54 300.48)">Tawakkalna</text><path class="cls-10" d="M6,256.7H127.43A13.57,13.57,0,0,1,141,270.26v13.3a13.57,13.57,0,0,1-13.57,13.57H7.43a5.74,5.74,0,0,1-5.74-5.74V261A4.3,4.3,0,0,1,6,256.7Z"/></svg>