<?xml version="1.0" encoding="utf-8"?>
<!-- Generator: Adobe Illustrator 26.0.2, SVG Export Plug-In . SVG Version: 6.00 Build 0)  -->
<svg version="1.1" id="Layer_1" xmlns="http://www.w3.org/2000/svg" xmlns:xlink="http://www.w3.org/1999/xlink" x="0px" y="0px"
	 viewBox="0 0 2277 2277" style="enable-background:new 0 0 2277 2277;" xml:space="preserve">
<style type="text/css">
	.st0{fill:#009EFF;}
</style>
<rect x="690" y="138" class="st0" width="69" height="69"/>
<rect x="759" y="138" class="st0" width="69" height="69"/>
<rect x="828" y="138" class="st0" width="69" height="69"/>
<rect x="1035" y="138" class="st0" width="69" height="69"/>
<rect x="1104" y="138" class="st0" width="69" height="69"/>
<rect x="1173" y="138" class="st0" width="69" height="69"/>
<rect x="1380" y="138" class="st0" width="69" height="69"/>
<rect x="690" y="207" class="st0" width="69" height="69"/>
<rect x="759" y="207" class="st0" width="69" height="69"/>
<rect x="828" y="207" class="st0" width="69" height="69"/>
<rect x="897" y="207" class="st0" width="69" height="69"/>
<rect x="966" y="207" class="st0" width="69" height="69"/>
<rect x="1035" y="207" class="st0" width="69" height="69"/>
<rect x="1104" y="207" class="st0" width="69" height="69"/>
<rect x="1173" y="207" class="st0" width="69" height="69"/>
<rect x="1311" y="207" class="st0" width="69" height="69"/>
<rect x="1380" y="207" class="st0" width="69" height="69"/>
<rect x="1449" y="207" class="st0" width="69" height="69"/>
<rect x="1518" y="207" class="st0" width="69" height="69"/>
<rect x="690" y="276" class="st0" width="69" height="69"/>
<rect x="759" y="276" class="st0" width="69" height="69"/>
<rect x="828" y="276" class="st0" width="69" height="69"/>
<rect x="897" y="276" class="st0" width="69" height="69"/>
<rect x="1035" y="276" class="st0" width="69" height="69"/>
<rect x="1104" y="276" class="st0" width="69" height="69"/>
<rect x="1518" y="276" class="st0" width="69" height="69"/>
<rect x="759" y="345" class="st0" width="69" height="69"/>
<rect x="828" y="345" class="st0" width="69" height="69"/>
<rect x="897" y="345" class="st0" width="69" height="69"/>
<rect x="966" y="345" class="st0" width="69" height="69"/>
<rect x="1104" y="345" class="st0" width="69" height="69"/>
<rect x="1173" y="345" class="st0" width="69" height="69"/>
<rect x="1311" y="345" class="st0" width="69" height="69"/>
<rect x="1449" y="345" class="st0" width="69" height="69"/>
<rect x="1518" y="345" class="st0" width="69" height="69"/>
<rect x="690" y="414" class="st0" width="69" height="69"/>
<rect x="759" y="414" class="st0" width="69" height="69"/>
<rect x="828" y="414" class="st0" width="69" height="69"/>
<rect x="966" y="414" class="st0" width="69" height="69"/>
<rect x="1035" y="414" class="st0" width="69" height="69"/>
<rect x="1173" y="414" class="st0" width="69" height="69"/>
<rect x="1311" y="414" class="st0" width="69" height="69"/>
<rect x="1380" y="414" class="st0" width="69" height="69"/>
<rect x="1449" y="414" class="st0" width="69" height="69"/>
<rect x="759" y="483" class="st0" width="69" height="69"/>
<rect x="1035" y="483" class="st0" width="69" height="69"/>
<rect x="1104" y="483" class="st0" width="69" height="69"/>
<rect x="1311" y="483" class="st0" width="69" height="69"/>
<rect x="1518" y="483" class="st0" width="69" height="69"/>
<rect x="690" y="552" class="st0" width="69" height="69"/>
<rect x="828" y="552" class="st0" width="69" height="69"/>
<rect x="966" y="552" class="st0" width="69" height="69"/>
<rect x="1104" y="552" class="st0" width="69" height="69"/>
<rect x="1242" y="552" class="st0" width="69" height="69"/>
<rect x="1380" y="552" class="st0" width="69" height="69"/>
<rect x="1518" y="552" class="st0" width="69" height="69"/>
<rect x="759" y="621" class="st0" width="69" height="69"/>
<rect x="966" y="621" class="st0" width="69" height="69"/>
<rect x="1104" y="621" class="st0" width="69" height="69"/>
<rect x="138" y="690" class="st0" width="69" height="69"/>
<rect x="345" y="690" class="st0" width="69" height="69"/>
<rect x="414" y="690" class="st0" width="69" height="69"/>
<rect x="483" y="690" class="st0" width="69" height="69"/>
<rect x="552" y="690" class="st0" width="69" height="69"/>
<rect x="621" y="690" class="st0" width="69" height="69"/>
<rect x="690" y="690" class="st0" width="69" height="69"/>
<rect x="759" y="690" class="st0" width="69" height="69"/>
<rect x="966" y="690" class="st0" width="69" height="69"/>
<rect x="1035" y="690" class="st0" width="69" height="69"/>
<rect x="1104" y="690" class="st0" width="69" height="69"/>
<rect x="1173" y="690" class="st0" width="69" height="69"/>
<rect x="1242" y="690" class="st0" width="69" height="69"/>
<rect x="1311" y="690" class="st0" width="69" height="69"/>
<rect x="1587" y="690" class="st0" width="69" height="69"/>
<rect x="1794" y="690" class="st0" width="69" height="69"/>
<rect x="1932" y="690" class="st0" width="69" height="69"/>
<rect x="2001" y="690" class="st0" width="69" height="69"/>
<rect x="2070" y="690" class="st0" width="69" height="69"/>
<rect x="138" y="759" class="st0" width="69" height="69"/>
<rect x="276" y="759" class="st0" width="69" height="69"/>
<rect x="690" y="759" class="st0" width="69" height="69"/>
<rect x="966" y="759" class="st0" width="69" height="69"/>
<rect x="1104" y="759" class="st0" width="69" height="69"/>
<rect x="1311" y="759" class="st0" width="69" height="69"/>
<rect x="1449" y="759" class="st0" width="69" height="69"/>
<rect x="1587" y="759" class="st0" width="69" height="69"/>
<rect x="1725" y="759" class="st0" width="69" height="69"/>
<rect x="1794" y="759" class="st0" width="69" height="69"/>
<rect x="1932" y="759" class="st0" width="69" height="69"/>
<rect x="2001" y="759" class="st0" width="69" height="69"/>
<rect x="207" y="828" class="st0" width="69" height="69"/>
<rect x="276" y="828" class="st0" width="69" height="69"/>
<rect x="414" y="828" class="st0" width="69" height="69"/>
<rect x="483" y="828" class="st0" width="69" height="69"/>
<rect x="552" y="828" class="st0" width="69" height="69"/>
<rect x="759" y="828" class="st0" width="69" height="69"/>
<rect x="828" y="828" class="st0" width="69" height="69"/>
<rect x="1104" y="828" class="st0" width="69" height="69"/>
<rect x="1311" y="828" class="st0" width="69" height="69"/>
<rect x="1380" y="828" class="st0" width="69" height="69"/>
<rect x="1587" y="828" class="st0" width="69" height="69"/>
<rect x="1725" y="828" class="st0" width="69" height="69"/>
<rect x="1932" y="828" class="st0" width="69" height="69"/>
<rect x="345" y="897" class="st0" width="69" height="69"/>
<rect x="414" y="897" class="st0" width="69" height="69"/>
<rect x="690" y="897" class="st0" width="69" height="69"/>
<rect x="759" y="897" class="st0" width="69" height="69"/>
<rect x="828" y="897" class="st0" width="69" height="69"/>
<rect x="1104" y="897" class="st0" width="69" height="69"/>
<rect x="1173" y="897" class="st0" width="69" height="69"/>
<rect x="1311" y="897" class="st0" width="69" height="69"/>
<rect x="1518" y="897" class="st0" width="69" height="69"/>
<rect x="1587" y="897" class="st0" width="69" height="69"/>
<rect x="1656" y="897" class="st0" width="69" height="69"/>
<rect x="1863" y="897" class="st0" width="69" height="69"/>
<rect x="2070" y="897" class="st0" width="69" height="69"/>
<rect x="138" y="966" class="st0" width="69" height="69"/>
<rect x="207" y="966" class="st0" width="69" height="69"/>
<rect x="276" y="966" class="st0" width="69" height="69"/>
<rect x="345" y="966" class="st0" width="69" height="69"/>
<rect x="552" y="966" class="st0" width="69" height="69"/>
<rect x="828" y="966" class="st0" width="69" height="69"/>
<rect x="966" y="966" class="st0" width="69" height="69"/>
<rect x="1035" y="966" class="st0" width="69" height="69"/>
<rect x="1104" y="966" class="st0" width="69" height="69"/>
<rect x="1380" y="966" class="st0" width="69" height="69"/>
<rect x="1518" y="966" class="st0" width="69" height="69"/>
<rect x="1656" y="966" class="st0" width="69" height="69"/>
<rect x="1725" y="966" class="st0" width="69" height="69"/>
<rect x="2070" y="966" class="st0" width="69" height="69"/>
<rect x="276" y="1035" class="st0" width="69" height="69"/>
<rect x="897" y="1035" class="st0" width="69" height="69"/>
<rect x="966" y="1035" class="st0" width="69" height="69"/>
<rect x="1311" y="1035" class="st0" width="69" height="69"/>
<rect x="1380" y="1035" class="st0" width="69" height="69"/>
<rect x="1587" y="1035" class="st0" width="69" height="69"/>
<rect x="1656" y="1035" class="st0" width="69" height="69"/>
<rect x="1794" y="1035" class="st0" width="69" height="69"/>
<rect x="1863" y="1035" class="st0" width="69" height="69"/>
<rect x="1932" y="1035" class="st0" width="69" height="69"/>
<rect x="2001" y="1035" class="st0" width="69" height="69"/>
<rect x="2070" y="1035" class="st0" width="69" height="69"/>
<rect x="207" y="1104" class="st0" width="69" height="69"/>
<rect x="483" y="1104" class="st0" width="69" height="69"/>
<rect x="552" y="1104" class="st0" width="69" height="69"/>
<rect x="621" y="1104" class="st0" width="69" height="69"/>
<rect x="690" y="1104" class="st0" width="69" height="69"/>
<rect x="828" y="1104" class="st0" width="69" height="69"/>
<rect x="1104" y="1104" class="st0" width="69" height="69"/>
<rect x="1173" y="1104" class="st0" width="69" height="69"/>
<rect x="1311" y="1104" class="st0" width="69" height="69"/>
<rect x="1449" y="1104" class="st0" width="69" height="69"/>
<rect x="1518" y="1104" class="st0" width="69" height="69"/>
<rect x="1587" y="1104" class="st0" width="69" height="69"/>
<rect x="1656" y="1104" class="st0" width="69" height="69"/>
<rect x="1725" y="1104" class="st0" width="69" height="69"/>
<rect x="1932" y="1104" class="st0" width="69" height="69"/>
<rect x="2070" y="1104" class="st0" width="69" height="69"/>
<rect x="138" y="1173" class="st0" width="69" height="69"/>
<rect x="207" y="1173" class="st0" width="69" height="69"/>
<rect x="414" y="1173" class="st0" width="69" height="69"/>
<rect x="621" y="1173" class="st0" width="69" height="69"/>
<rect x="759" y="1173" class="st0" width="69" height="69"/>
<rect x="828" y="1173" class="st0" width="69" height="69"/>
<rect x="1035" y="1173" class="st0" width="69" height="69"/>
<rect x="1104" y="1173" class="st0" width="69" height="69"/>
<rect x="1242" y="1173" class="st0" width="69" height="69"/>
<rect x="1380" y="1173" class="st0" width="69" height="69"/>
<rect x="1725" y="1173" class="st0" width="69" height="69"/>
<rect x="1794" y="1173" class="st0" width="69" height="69"/>
<rect x="1932" y="1173" class="st0" width="69" height="69"/>
<rect x="2070" y="1173" class="st0" width="69" height="69"/>
<rect x="414" y="1242" class="st0" width="69" height="69"/>
<rect x="552" y="1242" class="st0" width="69" height="69"/>
<rect x="966" y="1242" class="st0" width="69" height="69"/>
<rect x="1173" y="1242" class="st0" width="69" height="69"/>
<rect x="1449" y="1242" class="st0" width="69" height="69"/>
<rect x="1518" y="1242" class="st0" width="69" height="69"/>
<rect x="1863" y="1242" class="st0" width="69" height="69"/>
<rect x="138" y="1311" class="st0" width="69" height="69"/>
<rect x="345" y="1311" class="st0" width="69" height="69"/>
<rect x="690" y="1311" class="st0" width="69" height="69"/>
<rect x="759" y="1311" class="st0" width="69" height="69"/>
<rect x="1311" y="1311" class="st0" width="69" height="69"/>
<rect x="1380" y="1311" class="st0" width="69" height="69"/>
<rect x="1449" y="1311" class="st0" width="69" height="69"/>
<rect x="1794" y="1311" class="st0" width="69" height="69"/>
<rect x="1932" y="1311" class="st0" width="69" height="69"/>
<rect x="2001" y="1311" class="st0" width="69" height="69"/>
<rect x="138" y="1380" class="st0" width="69" height="69"/>
<rect x="207" y="1380" class="st0" width="69" height="69"/>
<rect x="276" y="1380" class="st0" width="69" height="69"/>
<rect x="552" y="1380" class="st0" width="69" height="69"/>
<rect x="621" y="1380" class="st0" width="69" height="69"/>
<rect x="759" y="1380" class="st0" width="69" height="69"/>
<rect x="828" y="1380" class="st0" width="69" height="69"/>
<rect x="1035" y="1380" class="st0" width="69" height="69"/>
<rect x="1104" y="1380" class="st0" width="69" height="69"/>
<rect x="1242" y="1380" class="st0" width="69" height="69"/>
<rect x="1380" y="1380" class="st0" width="69" height="69"/>
<rect x="1449" y="1380" class="st0" width="69" height="69"/>
<rect x="1587" y="1380" class="st0" width="69" height="69"/>
<rect x="1656" y="1380" class="st0" width="69" height="69"/>
<rect x="1863" y="1380" class="st0" width="69" height="69"/>
<rect x="2070" y="1380" class="st0" width="69" height="69"/>
<rect x="138" y="1449" class="st0" width="69" height="69"/>
<rect x="207" y="1449" class="st0" width="69" height="69"/>
<rect x="414" y="1449" class="st0" width="69" height="69"/>
<rect x="483" y="1449" class="st0" width="69" height="69"/>
<rect x="621" y="1449" class="st0" width="69" height="69"/>
<rect x="690" y="1449" class="st0" width="69" height="69"/>
<rect x="759" y="1449" class="st0" width="69" height="69"/>
<rect x="828" y="1449" class="st0" width="69" height="69"/>
<rect x="897" y="1449" class="st0" width="69" height="69"/>
<rect x="1035" y="1449" class="st0" width="69" height="69"/>
<rect x="1173" y="1449" class="st0" width="69" height="69"/>
<rect x="1242" y="1449" class="st0" width="69" height="69"/>
<rect x="1449" y="1449" class="st0" width="69" height="69"/>
<rect x="1587" y="1449" class="st0" width="69" height="69"/>
<rect x="1656" y="1449" class="st0" width="69" height="69"/>
<rect x="1725" y="1449" class="st0" width="69" height="69"/>
<rect x="1794" y="1449" class="st0" width="69" height="69"/>
<rect x="1863" y="1449" class="st0" width="69" height="69"/>
<rect x="1932" y="1449" class="st0" width="69" height="69"/>
<rect x="138" y="1518" class="st0" width="69" height="69"/>
<rect x="207" y="1518" class="st0" width="69" height="69"/>
<rect x="276" y="1518" class="st0" width="69" height="69"/>
<rect x="483" y="1518" class="st0" width="69" height="69"/>
<rect x="552" y="1518" class="st0" width="69" height="69"/>
<rect x="759" y="1518" class="st0" width="69" height="69"/>
<rect x="828" y="1518" class="st0" width="69" height="69"/>
<rect x="966" y="1518" class="st0" width="69" height="69"/>
<rect x="1035" y="1518" class="st0" width="69" height="69"/>
<rect x="1311" y="1518" class="st0" width="69" height="69"/>
<rect x="1449" y="1518" class="st0" width="69" height="69"/>
<rect x="1518" y="1518" class="st0" width="69" height="69"/>
<rect x="1587" y="1518" class="st0" width="69" height="69"/>
<rect x="1656" y="1518" class="st0" width="69" height="69"/>
<rect x="1725" y="1518" class="st0" width="69" height="69"/>
<rect x="1794" y="1518" class="st0" width="69" height="69"/>
<rect x="1863" y="1518" class="st0" width="69" height="69"/>
<rect x="1932" y="1518" class="st0" width="69" height="69"/>
<rect x="2001" y="1518" class="st0" width="69" height="69"/>
<rect x="690" y="1587" class="st0" width="69" height="69"/>
<rect x="897" y="1587" class="st0" width="69" height="69"/>
<rect x="1035" y="1587" class="st0" width="69" height="69"/>
<rect x="1242" y="1587" class="st0" width="69" height="69"/>
<rect x="1311" y="1587" class="st0" width="69" height="69"/>
<rect x="1380" y="1587" class="st0" width="69" height="69"/>
<rect x="1518" y="1587" class="st0" width="69" height="69"/>
<rect x="1794" y="1587" class="st0" width="69" height="69"/>
<rect x="1863" y="1587" class="st0" width="69" height="69"/>
<rect x="690" y="1656" class="st0" width="69" height="69"/>
<rect x="1035" y="1656" class="st0" width="69" height="69"/>
<rect x="1173" y="1656" class="st0" width="69" height="69"/>
<rect x="1242" y="1656" class="st0" width="69" height="69"/>
<rect x="1449" y="1656" class="st0" width="69" height="69"/>
<rect x="1518" y="1656" class="st0" width="69" height="69"/>
<rect x="1656" y="1656" class="st0" width="69" height="69"/>
<rect x="1794" y="1656" class="st0" width="69" height="69"/>
<rect x="1863" y="1656" class="st0" width="69" height="69"/>
<rect x="690" y="1725" class="st0" width="69" height="69"/>
<rect x="759" y="1725" class="st0" width="69" height="69"/>
<rect x="828" y="1725" class="st0" width="69" height="69"/>
<rect x="966" y="1725" class="st0" width="69" height="69"/>
<rect x="1035" y="1725" class="st0" width="69" height="69"/>
<rect x="1242" y="1725" class="st0" width="69" height="69"/>
<rect x="1311" y="1725" class="st0" width="69" height="69"/>
<rect x="1449" y="1725" class="st0" width="69" height="69"/>
<rect x="1518" y="1725" class="st0" width="69" height="69"/>
<rect x="1794" y="1725" class="st0" width="69" height="69"/>
<rect x="2001" y="1725" class="st0" width="69" height="69"/>
<rect x="2070" y="1725" class="st0" width="69" height="69"/>
<rect x="690" y="1794" class="st0" width="69" height="69"/>
<rect x="897" y="1794" class="st0" width="69" height="69"/>
<rect x="966" y="1794" class="st0" width="69" height="69"/>
<rect x="1035" y="1794" class="st0" width="69" height="69"/>
<rect x="1173" y="1794" class="st0" width="69" height="69"/>
<rect x="1242" y="1794" class="st0" width="69" height="69"/>
<rect x="1449" y="1794" class="st0" width="69" height="69"/>
<rect x="1518" y="1794" class="st0" width="69" height="69"/>
<rect x="1587" y="1794" class="st0" width="69" height="69"/>
<rect x="1656" y="1794" class="st0" width="69" height="69"/>
<rect x="1725" y="1794" class="st0" width="69" height="69"/>
<rect x="1794" y="1794" class="st0" width="69" height="69"/>
<rect x="1863" y="1794" class="st0" width="69" height="69"/>
<rect x="690" y="1863" class="st0" width="69" height="69"/>
<rect x="966" y="1863" class="st0" width="69" height="69"/>
<rect x="1035" y="1863" class="st0" width="69" height="69"/>
<rect x="1104" y="1863" class="st0" width="69" height="69"/>
<rect x="1242" y="1863" class="st0" width="69" height="69"/>
<rect x="1311" y="1863" class="st0" width="69" height="69"/>
<rect x="1380" y="1863" class="st0" width="69" height="69"/>
<rect x="1449" y="1863" class="st0" width="69" height="69"/>
<rect x="1518" y="1863" class="st0" width="69" height="69"/>
<rect x="1587" y="1863" class="st0" width="69" height="69"/>
<rect x="1725" y="1863" class="st0" width="69" height="69"/>
<rect x="2001" y="1863" class="st0" width="69" height="69"/>
<rect x="828" y="1932" class="st0" width="69" height="69"/>
<rect x="1035" y="1932" class="st0" width="69" height="69"/>
<rect x="1242" y="1932" class="st0" width="69" height="69"/>
<rect x="1587" y="1932" class="st0" width="69" height="69"/>
<rect x="1725" y="1932" class="st0" width="69" height="69"/>
<rect x="1794" y="1932" class="st0" width="69" height="69"/>
<rect x="1932" y="1932" class="st0" width="69" height="69"/>
<rect x="2001" y="1932" class="st0" width="69" height="69"/>
<rect x="2070" y="1932" class="st0" width="69" height="69"/>
<rect x="897" y="2001" class="st0" width="69" height="69"/>
<rect x="1035" y="2001" class="st0" width="69" height="69"/>
<rect x="1173" y="2001" class="st0" width="69" height="69"/>
<rect x="1587" y="2001" class="st0" width="69" height="69"/>
<rect x="1725" y="2001" class="st0" width="69" height="69"/>
<rect x="1863" y="2001" class="st0" width="69" height="69"/>
<rect x="1932" y="2001" class="st0" width="69" height="69"/>
<rect x="2070" y="2001" class="st0" width="69" height="69"/>
<rect x="690" y="2070" class="st0" width="69" height="69"/>
<rect x="897" y="2070" class="st0" width="69" height="69"/>
<rect x="966" y="2070" class="st0" width="69" height="69"/>
<rect x="1311" y="2070" class="st0" width="69" height="69"/>
<rect x="1380" y="2070" class="st0" width="69" height="69"/>
<rect x="1449" y="2070" class="st0" width="69" height="69"/>
<rect x="1518" y="2070" class="st0" width="69" height="69"/>
<rect x="1656" y="2070" class="st0" width="69" height="69"/>
<rect x="1794" y="2070" class="st0" width="69" height="69"/>
<rect x="1863" y="2070" class="st0" width="69" height="69"/>
<path class="st0" d="M548.5,138H210.4H138v72.4v338.1V621h72.4h338.1H621v-72.5V210.4V138H548.5z M548,548H210V210h338V548z"/>
<path class="st0" d="M2066.6,138h-338.1H1656v72.4v338.1V621h72.4h338.1h72.4v-72.5V210.4V138H2066.6z M2066,548h-338V210h338V548z"
	/>
<path class="st0" d="M548.5,1656H210.4H138v72.4v338.1v72.4h72.4h338.1H621v-72.4v-338.1V1656H548.5z M548,2066H210v-338h338V2066z"
	/>
<rect x="276" y="276" class="st0" width="207" height="207"/>
<rect x="1794" y="276" class="st0" width="207" height="207"/>
<rect x="276" y="1794" class="st0" width="207" height="207"/>
</svg>
