<svg id="Capa_1" data-name="Capa 1" xmlns="http://www.w3.org/2000/svg" viewBox="0 0 460.8 512"><defs><style>.cls-1{fill:#fff;}</style></defs><path class="cls-1" d="M448,281.6c20.48,0,38.4,17.92,38.4,38.4V473.6c0,20.48-17.92,38.4-38.4,38.4s-38.4-17.92-38.4-38.4V320C409.6,299.52,427.52,281.6,448,281.6Z" transform="translate(-25.6)"/><path class="cls-1" d="M320,179.2c20.48,0,38.4,17.92,38.4,38.4v256c0,20.48-17.92,38.4-38.4,38.4s-38.4-17.92-38.4-38.4v-256C281.6,197.12,299.52,179.2,320,179.2Z" transform="translate(-25.6)"/><path class="cls-1" d="M192,102.4c20.48,0,38.4,17.92,38.4,38.4V473.6c0,20.48-17.92,38.4-38.4,38.4s-38.4-17.92-38.4-38.4V140.8C153.6,120.32,171.52,102.4,192,102.4Z" transform="translate(-25.6)"/><path class="cls-1" d="M64,0c20.48,0,38.4,17.92,38.4,38.4V473.6c0,20.48-17.92,38.4-38.4,38.4s-38.4-17.92-38.4-38.4V38.4C25.6,17.92,43.52,0,64,0Z" transform="translate(-25.6)"/></svg>